<svg width="203" height="50" viewBox="0 0 203 50" fill="none" xmlns="http://www.w3.org/2000/svg">
<rect x="0.877193" y="0.877193" width="200.877" height="48.2456" rx="2.63158" stroke="#F53838" stroke-width="1.75439"/>
<path d="M54.3241 19.5302C55.1401 20.2982 55.5481 21.2702 55.5481 22.4462C55.5481 23.6222 55.1401 24.5942 54.3241 25.3622C53.5201 26.1182 52.4641 26.4962 51.1561 26.4962H48.9241V31.1582H47.2501V18.3782H51.1561C52.4641 18.3782 53.5201 18.7622 54.3241 19.5302ZM53.1541 24.2462C53.6461 23.7782 53.8921 23.1782 53.8921 22.4462C53.8921 21.7142 53.6461 21.1142 53.1541 20.6462C52.6741 20.1782 52.0081 19.9442 51.1561 19.9442H48.9241V24.9482H51.1561C52.0081 24.9482 52.6741 24.7142 53.1541 24.2462ZM61.2417 31.3382C59.8617 31.3382 58.7397 30.8942 57.8757 30.0062C57.0117 29.1182 56.5797 28.0022 56.5797 26.6582C56.5797 25.3262 57.0177 24.2162 57.8937 23.3282C58.7697 22.4282 59.8917 21.9782 61.2597 21.9782C62.4717 21.9782 63.4857 22.3862 64.3017 23.2022C65.1297 24.0062 65.5437 25.1042 65.5437 26.4962C65.5437 26.6762 65.5377 26.8322 65.5257 26.9642H58.1457C58.1697 27.8042 58.4697 28.5062 59.0457 29.0702C59.6337 29.6342 60.3717 29.9162 61.2597 29.9162C62.5197 29.9162 63.4557 29.3942 64.0677 28.3502L65.2917 29.1962C64.4157 30.6242 63.0657 31.3382 61.2417 31.3382ZM58.2537 25.7042H63.9597C63.8397 24.9842 63.5217 24.4142 63.0057 23.9942C62.5017 23.5622 61.9017 23.3462 61.2057 23.3462C60.4977 23.3462 59.8617 23.5622 59.2977 23.9942C58.7457 24.4142 58.3977 24.9842 58.2537 25.7042ZM67.7407 31.1582V22.1582H73.3747V23.5802H69.2887V31.1582H67.7407ZM76.5271 31.1582H75.1411V22.1582H76.6891V28.7642L81.7651 22.1582H83.1331V31.1582H81.6031V24.5522L76.5271 31.1582ZM90.0887 31.3382C88.7327 31.3382 87.6047 30.8882 86.7047 29.9882C85.8167 29.0882 85.3727 27.9782 85.3727 26.6582C85.3727 25.3382 85.8167 24.2282 86.7047 23.3282C87.6047 22.4282 88.7327 21.9782 90.0887 21.9782C91.0007 21.9782 91.8167 22.1942 92.5367 22.6262C93.2687 23.0582 93.8387 23.6462 94.2467 24.3902L92.8967 25.1462C92.6327 24.6182 92.2547 24.1982 91.7627 23.8862C91.2827 23.5742 90.7247 23.4182 90.0887 23.4182C89.1647 23.4182 88.4087 23.7302 87.8207 24.3542C87.2327 24.9782 86.9387 25.7462 86.9387 26.6582C86.9387 27.5702 87.2327 28.3382 87.8207 28.9622C88.4087 29.5862 89.1647 29.8982 90.0887 29.8982C90.7247 29.8982 91.2827 29.7422 91.7627 29.4302C92.2547 29.1182 92.6327 28.6982 92.8967 28.1702L94.2467 28.9262C93.8387 29.6702 93.2687 30.2582 92.5367 30.6902C91.8167 31.1222 91.0007 31.3382 90.0887 31.3382ZM97.9624 31.1582V23.5802H95.1004V22.1582H102.498V23.5802H99.5104V31.1582H97.9624ZM105.816 34.9202H104.268V22.1582H105.816V23.5442C106.128 23.0882 106.566 22.7162 107.13 22.4282C107.706 22.1282 108.324 21.9782 108.984 21.9782C110.232 21.9782 111.276 22.4342 112.116 23.3462C112.968 24.2582 113.394 25.3622 113.394 26.6582C113.394 27.9542 112.968 29.0582 112.116 29.9702C111.276 30.8822 110.232 31.3382 108.984 31.3382C108.324 31.3382 107.706 31.1942 107.13 30.9062C106.566 30.6062 106.128 30.2282 105.816 29.7722V34.9202ZM106.554 28.9802C107.13 29.6042 107.862 29.9162 108.75 29.9162C109.638 29.9162 110.37 29.6042 110.946 28.9802C111.522 28.3562 111.81 27.5822 111.81 26.6582C111.81 25.7342 111.522 24.9602 110.946 24.3362C110.37 23.7122 109.638 23.4002 108.75 23.4002C107.862 23.4002 107.13 23.7122 106.554 24.3362C105.978 24.9602 105.69 25.7342 105.69 26.6582C105.69 27.5822 105.978 28.3562 106.554 28.9802ZM119.331 31.3382C118.083 31.3382 117.033 30.8822 116.181 29.9702C115.341 29.0582 114.921 27.9542 114.921 26.6582C114.921 25.3622 115.341 24.2582 116.181 23.3462C117.033 22.4342 118.083 21.9782 119.331 21.9782C119.991 21.9782 120.603 22.1282 121.167 22.4282C121.743 22.7162 122.187 23.0882 122.499 23.5442V22.1582H124.047V31.1582H122.499V29.7722C122.187 30.2282 121.743 30.6062 121.167 30.9062C120.603 31.1942 119.991 31.3382 119.331 31.3382ZM119.565 29.9162C120.453 29.9162 121.185 29.6042 121.761 28.9802C122.337 28.3562 122.625 27.5822 122.625 26.6582C122.625 25.7342 122.337 24.9602 121.761 24.3362C121.185 23.7122 120.453 23.4002 119.565 23.4002C118.665 23.4002 117.927 23.7122 117.351 24.3362C116.775 24.9602 116.487 25.7342 116.487 26.6582C116.487 27.5822 116.775 28.3562 117.351 28.9802C117.927 29.6042 118.665 29.9162 119.565 29.9162ZM136.087 29.7362V33.4262H134.629V31.1582H126.961V22.1582H128.509V29.7362H133.153V22.1582H134.701V29.7362H136.087ZM139.545 31.1582H138.159V22.1582H139.707V28.7642L144.783 22.1582H146.151V31.1582H144.621V24.5522L139.545 31.1582ZM147.562 31.1582L151.198 27.6302C150.49 27.4622 149.944 27.1502 149.56 26.6942C149.176 26.2262 148.984 25.6682 148.984 25.0202C148.984 24.1922 149.266 23.5082 149.83 22.9682C150.406 22.4282 151.216 22.1582 152.26 22.1582H155.59V31.1582H154.042V27.8822H152.89L149.506 31.1582H147.562ZM152.35 26.4962H154.042V23.5442H152.35C151.138 23.5442 150.532 24.0422 150.532 25.0382C150.532 25.5062 150.688 25.8662 151 26.1182C151.324 26.3702 151.774 26.4962 152.35 26.4962Z" fill="#0B132A"/>
</svg>
