<svg width="171" height="40" viewBox="0 0 171 40" fill="none" xmlns="http://www.w3.org/2000/svg">
<path d="M36.8451 38.7165H31.9925V15.9317H36.8451V17.5385C37.1879 17.0244 37.7556 16.5744 38.5483 16.1888C39.341 15.7817 40.2301 15.5782 41.2157 15.5782C43.2938 15.5782 45.0506 16.403 46.4861 18.0527C47.9429 19.7024 48.6714 21.6734 48.6714 23.9659C48.6714 26.2583 47.9429 28.2293 46.4861 29.879C45.0506 31.5287 43.2938 32.3535 41.2157 32.3535C40.2301 32.3535 39.341 32.1607 38.5483 31.775C37.7556 31.368 37.1879 30.9074 36.8451 30.3932V38.7165ZM37.4557 26.826C38.1413 27.5759 39.0304 27.9508 40.123 27.9508C41.2157 27.9508 42.0941 27.5759 42.7582 26.826C43.4438 26.0762 43.7866 25.1228 43.7866 23.9659C43.7866 22.8089 43.4438 21.8556 42.7582 21.1057C42.0941 20.3558 41.2157 19.9809 40.123 19.9809C39.0304 19.9809 38.1413 20.3558 37.4557 21.1057C36.7915 21.8556 36.4595 22.8089 36.4595 23.9659C36.4595 25.1228 36.7915 26.0762 37.4557 26.826ZM51.7012 32V15.9317H56.5539V18.342C56.811 17.6135 57.293 17.0029 58 16.5102C58.707 15.996 59.4997 15.7389 60.3781 15.7389C60.9351 15.7389 61.46 15.8032 61.9528 15.9317V20.8486C61.203 20.5915 60.4852 20.463 59.7997 20.463C58.7713 20.463 57.9679 20.8272 57.3894 21.5556C56.8324 22.2626 56.5539 23.2053 56.5539 24.3836V32H51.7012ZM77.5308 29.9433C75.8811 31.5501 73.8886 32.3535 71.5534 32.3535C69.2181 32.3535 67.2256 31.5501 65.576 29.9433C63.9263 28.315 63.1014 26.3225 63.1014 23.9659C63.1014 21.6092 63.9263 19.6274 65.576 18.0206C67.2256 16.3923 69.2181 15.5782 71.5534 15.5782C73.8886 15.5782 75.8811 16.3923 77.5308 18.0206C79.1804 19.6274 80.0053 21.6092 80.0053 23.9659C80.0053 26.3225 79.1804 28.315 77.5308 29.9433ZM68.9824 26.7617C69.668 27.4687 70.525 27.8222 71.5534 27.8222C72.5817 27.8222 73.428 27.4687 74.0921 26.7617C74.7777 26.0547 75.1205 25.1228 75.1205 23.9659C75.1205 22.8089 74.7777 21.877 74.0921 21.17C73.428 20.463 72.5817 20.1095 71.5534 20.1095C70.525 20.1095 69.668 20.463 68.9824 21.17C68.3183 21.877 67.9862 22.8089 67.9862 23.9659C67.9862 25.1228 68.3183 26.0547 68.9824 26.7617ZM88.1002 15.9317V32.9641C88.1002 34.9137 87.5003 36.4134 86.3005 37.4632C85.1008 38.513 83.6118 39.0379 81.8336 39.0379C80.9766 39.0379 80.3231 38.9951 79.8732 38.9094V34.7959C80.1732 34.8387 80.441 34.8602 80.6766 34.8602C81.555 34.8602 82.1978 34.6459 82.6048 34.2174C83.0333 33.7889 83.2476 33.1034 83.2476 32.1607V15.9317H88.1002ZM85.6578 13.7464C84.8437 13.7464 84.1367 13.4572 83.5368 12.8787C82.9369 12.2788 82.637 11.5611 82.637 10.7256C82.637 9.89003 82.9369 9.18302 83.5368 8.60456C84.1367 8.00468 84.8437 7.70474 85.6578 7.70474C86.5148 7.70474 87.2325 8.00468 87.811 8.60456C88.4108 9.18302 88.7108 9.89003 88.7108 10.7256C88.7108 11.5611 88.4108 12.2788 87.811 12.8787C87.2325 13.4572 86.5148 13.7464 85.6578 13.7464ZM99.6759 32.3535C97.2549 32.3535 95.2196 31.5929 93.5699 30.0718C91.9417 28.5292 91.1276 26.4939 91.1276 23.9659C91.1276 21.5663 91.931 19.5739 93.5378 17.9884C95.1446 16.3816 97.1585 15.5782 99.5795 15.5782C101.829 15.5782 103.725 16.2638 105.268 17.6349C106.81 19.0061 107.581 20.9343 107.581 23.4195C107.581 24.0408 107.549 24.6086 107.485 25.1228H95.8195C95.948 26.044 96.3872 26.751 97.1371 27.2438C97.8869 27.7151 98.7546 27.9508 99.7402 27.9508C100.619 27.9508 101.401 27.7794 102.086 27.4366C102.772 27.0724 103.286 26.6332 103.629 26.119L107.228 28.8185C106.457 29.9111 105.418 30.7788 104.111 31.4215C102.804 32.0428 101.326 32.3535 99.6759 32.3535ZM95.948 21.9412H102.761C102.568 21.1485 102.161 20.5487 101.54 20.1416C100.918 19.7345 100.222 19.531 99.4509 19.531C98.6368 19.531 97.8977 19.7345 97.2335 20.1416C96.5693 20.5272 96.1409 21.1271 95.948 21.9412ZM118.223 32.3535C115.824 32.3535 113.799 31.5608 112.15 29.9754C110.5 28.39 109.675 26.3868 109.675 23.9659C109.675 21.5449 110.5 19.5417 112.15 17.9563C113.799 16.3709 115.824 15.5782 118.223 15.5782C119.873 15.5782 121.394 16.0067 122.787 16.8637C124.179 17.7206 125.219 18.8561 125.904 20.2701L121.662 22.5197C120.955 20.9129 119.809 20.1095 118.223 20.1095C117.195 20.1095 116.327 20.4737 115.62 21.2021C114.913 21.9305 114.56 22.8518 114.56 23.9659C114.56 25.0799 114.913 26.0012 115.62 26.7296C116.327 27.458 117.195 27.8222 118.223 27.8222C119.809 27.8222 120.955 27.0188 121.662 25.412L125.904 27.6616C125.219 29.0756 124.179 30.2111 122.787 31.068C121.394 31.925 119.873 32.3535 118.223 32.3535ZM136.691 32.1928C134.806 32.1928 133.253 31.6786 132.031 30.6503C130.832 29.6005 130.232 28.09 130.232 26.119V20.1416H127.018V15.9317H130.232V11.4647H135.084V15.9317H139.583V20.1416H135.084V25.1228C135.084 26.0869 135.299 26.7832 135.727 27.2116C136.156 27.6401 136.852 27.8544 137.816 27.8544C138.544 27.8544 139.134 27.758 139.583 27.5652V31.8715C138.876 32.0857 137.912 32.1928 136.691 32.1928ZM155.864 29.9433C154.214 31.5501 152.222 32.3535 149.886 32.3535C147.551 32.3535 145.559 31.5501 143.909 29.9433C142.259 28.315 141.434 26.3225 141.434 23.9659C141.434 21.6092 142.259 19.6274 143.909 18.0206C145.559 16.3923 147.551 15.5782 149.886 15.5782C152.222 15.5782 154.214 16.3923 155.864 18.0206C157.513 19.6274 158.338 21.6092 158.338 23.9659C158.338 26.3225 157.513 28.315 155.864 29.9433ZM147.315 26.7617C148.001 27.4687 148.858 27.8222 149.886 27.8222C150.915 27.8222 151.761 27.4687 152.425 26.7617C153.111 26.0547 153.453 25.1228 153.453 23.9659C153.453 22.8089 153.111 21.877 152.425 21.17C151.761 20.463 150.915 20.1095 149.886 20.1095C148.858 20.1095 148.001 20.463 147.315 21.17C146.651 21.877 146.319 22.8089 146.319 23.9659C146.319 25.1228 146.651 26.0547 147.315 26.7617Z" fill="#19274D"/>
<path d="M11.1951 35.6002C9.67912 35.6002 8.22871 35.305 6.84389 34.7147C5.45908 34.1243 4.26741 33.3298 3.26889 32.3313C2.27036 31.3328 1.47592 30.1411 0.885552 28.7563C0.295184 27.3715 0 25.9211 0 24.4051C0 22.8891 0.295184 21.4387 0.885552 20.0539C1.47592 18.669 2.27036 17.4774 3.26889 16.4788C4.26741 15.4803 5.45908 14.6859 6.84389 14.0955C8.22871 13.5051 9.67912 13.21 11.1951 13.21C12.7111 13.21 14.1615 13.5051 15.5464 14.0955C16.9312 14.6859 18.1228 15.4803 19.1214 16.4788C20.1199 17.4774 20.9143 18.669 21.5047 20.0539C22.0951 21.4387 22.3902 22.8891 22.3902 24.4051C22.3902 25.9211 22.0951 27.3715 21.5047 28.7563C20.9143 30.1411 20.1199 31.3328 19.1214 32.3313C18.1228 33.3298 16.9312 34.1243 15.5464 34.7147C14.1615 35.305 12.7111 35.6002 11.1951 35.6002ZM11.1951 14.6094C9.86862 14.6094 8.60042 14.8681 7.39053 15.3856C6.18064 15.9031 5.13839 16.5991 4.26377 17.4737C3.38915 18.3483 2.6931 19.3906 2.17561 20.6005C1.65813 21.8104 1.39939 23.0786 1.39939 24.4051C1.39939 25.7316 1.65813 26.9998 2.17561 28.2097C2.6931 29.4196 3.38915 30.4618 4.26377 31.3364C5.13839 32.2111 6.18064 32.9071 7.39053 33.4246C8.60042 33.9421 9.86862 34.2008 11.1951 34.2008C12.5216 34.2008 13.7898 33.9421 14.9997 33.4246C16.2096 32.9071 17.2519 32.2111 18.1265 31.3364C19.0011 30.4618 19.6971 29.4196 20.2146 28.2097C20.7321 26.9998 20.9909 25.7316 20.9909 24.4051C20.9909 23.0786 20.7321 21.8104 20.2146 20.6005C19.6971 19.3906 19.0011 18.3483 18.1265 17.4737C17.2519 16.5991 16.2096 15.9031 14.9997 15.3856C13.7898 14.8681 12.5216 14.6094 11.1951 14.6094ZM13.9939 27.2039H8.39634V29.3029C8.39634 29.4924 8.3271 29.6564 8.18862 29.7949C8.05014 29.9334 7.88615 30.0026 7.69665 30.0026H6.29726C6.10776 30.0026 5.94376 29.9334 5.80528 29.7949C5.6668 29.6564 5.59756 29.4924 5.59756 29.3029V19.5072C5.59756 19.3177 5.6668 19.1537 5.80528 19.0152C5.94376 18.8768 6.10776 18.8075 6.29726 18.8075H13.9939C15.1601 18.8075 16.1513 19.2157 16.9676 20.032C17.7839 20.8483 18.1921 21.8395 18.1921 23.0057C18.1921 24.1719 17.7839 25.1631 16.9676 25.9794C16.1513 26.7957 15.1601 27.2039 13.9939 27.2039ZM13.9939 21.6063H8.39634V24.4051H13.9939C14.3875 24.4051 14.7191 24.2702 14.9888 24.0006C15.2585 23.7309 15.3933 23.4029 15.3933 23.0166C15.3933 22.6303 15.2585 22.2987 14.9888 22.0217C14.7191 21.7448 14.3875 21.6063 13.9939 21.6063Z" fill="#F53838"/>
</svg>
