<svg width="512" height="320" viewBox="0 0 512 320" fill="none" xmlns="http://www.w3.org/2000/svg">
<path d="M123.411 187.912C132.788 181.4 167.677 169.671 183.949 164.62H202.226C213.073 167.309 237.442 173.772 248.144 178.111C258.847 182.45 278.358 208.141 286.192 220.073L277.668 236.395C255.975 257.8 273.454 276.697 285.024 283.688C267.669 283.688 260.196 277.179 258.63 273.925C260.365 283.76 261.763 307.912 262.245 318.759H134.613V299.046H85.9336C81.4474 249.962 111.69 196.052 123.411 187.912Z" fill="url(#paint0_linear_22_700)"/>
<ellipse cx="194.466" cy="180.106" rx="21.7318" ry="15.4862" fill="#CF0606"/>
<path d="M178.332 178.507C181.153 162.288 180.159 147.279 179.718 142.101C180.335 137.252 205.988 146.333 218.329 151.181C211.365 154.707 209.478 172.336 209.404 180.711C209.625 183.465 207.906 189.305 199.267 190.627C184.811 192.302 179.287 183.245 178.332 178.507Z" fill="url(#paint1_linear_22_700)"/>
<mask id="mask0_22_700" style="mask-type:alpha" maskUnits="userSpaceOnUse" x="178" y="140" width="41" height="51">
<path d="M178.332 178.507C181.153 162.288 180.159 147.279 179.718 142.101C180.335 137.252 205.988 146.333 218.329 151.181C211.365 154.707 209.478 172.336 209.404 180.711C209.625 183.465 207.906 189.305 199.267 190.627C184.811 192.302 179.287 183.245 178.332 178.507Z" fill="#BABABA"/>
</mask>
<g mask="url(#mask0_22_700)">
<path opacity="0.1" d="M214.059 168.008C196.686 165.297 183.806 150.023 179.537 142.725C189.453 140.68 211.748 137.816 221.605 142.725C231.462 147.635 220.681 161.626 214.059 168.008Z" fill="black"/>
</g>
<path d="M208.766 154.15C237.3 152.91 238.116 113.888 234.957 94.5322C183.402 50.8351 162.702 85.1702 158.797 107.8C163.564 123.767 180.232 155.391 208.766 154.15Z" fill="url(#paint2_linear_22_700)"/>
<path d="M171.934 55.5296C163.725 52.9419 146.611 51.6481 143.827 67.174C143.827 77.2123 168.053 74.6693 171.934 55.5296Z" fill="#30235B"/>
<path d="M181.82 107.092L193.447 117.077L192.185 122.901L181.341 113.384L181.82 107.092Z" fill="#111111"/>
<path d="M169.997 116.071C179.922 124.48 180.565 137.61 179.646 143.124C176.429 142.262 167.446 136.679 157.246 121.241C140.98 88.0197 160.577 63.1731 172.409 54.9023C204.113 36.4655 246.501 65.0684 239.092 86.9514C231.682 108.834 196.245 103.78 183.092 95.3945C185.849 103.665 183.322 111.821 181.713 114.865C175.51 100.391 157.59 105.561 169.997 116.071Z" fill="#30235B"/>
<path d="M191.243 50.6322C212.355 44.5681 225.213 55.4985 229.003 61.7217C224.745 59.4289 212.944 56.2191 199.806 61.7217C179.03 71.2671 174.492 91.6212 174.819 100.605L161.062 99.6224V94.569C162.326 82.4501 170.131 56.6963 191.243 50.6322Z" fill="white"/>
<ellipse cx="166.697" cy="112.923" rx="16.1468" ry="19.754" fill="white"/>
<ellipse cx="166.697" cy="112.923" rx="16.1468" ry="19.754" fill="white"/>
<ellipse cx="166.697" cy="112.922" rx="7.70734" ry="9.42919" fill="#24C28A"/>
<path opacity="0.5" d="M237.248 109.907C231.263 108.058 224.817 112.001 222.342 114.204C217.842 118.501 224.666 129.426 232.555 124.394C238.866 120.367 238.313 113.059 237.248 109.907Z" fill="#E6FCFF"/>
<path fill-rule="evenodd" clip-rule="evenodd" d="M219.808 112.907C228.464 104.911 236.673 106.278 239.696 107.961C241.445 112.593 239.696 126.127 230.042 127.327C222.319 128.287 219.672 122.315 219.314 119.21C217.846 118.024 216.87 119.046 216.566 119.706C216.82 128.336 209.882 134.175 202.436 132.821C196.479 131.738 193.885 125.785 193.333 122.944H192.102V117.894C199.859 110.299 210.575 112.161 214.964 114.041C216.118 113.134 218.674 112.907 219.808 112.907ZM236.794 110.449C230.809 108.6 225.34 111.769 222.865 113.972C218.365 118.269 224.276 128.795 232.534 124.394C237.479 121.758 237.859 113.601 236.794 110.449ZM202.952 116.082C206.22 115.018 212.884 114.306 213.394 119.969C214.032 127.046 207.593 132.268 201.965 129.483C197.891 127.467 196.222 123.333 196.222 120.723C196.222 118.634 200.708 116.758 202.952 116.082Z" fill="#111111"/>
<path opacity="0.5" d="M213.415 119.97C212.905 114.307 206.241 115.019 202.973 116.083C200.73 116.76 196.243 118.635 196.243 120.724C196.243 123.334 197.912 127.468 201.987 129.484C207.614 132.269 214.054 127.047 213.415 119.97Z" fill="#E6FCFF"/>
<path d="M85.8935 299.108C90.9132 321.479 120.723 321.524 135 318.751L245.051 302.851C246.47 304.083 249.867 307.332 252.107 310.471C254.347 313.609 256.4 311.403 257.147 309.907C260.373 313.402 262.747 311.739 263.531 310.471C266.309 313.968 268.646 312.747 269.467 311.699C273.32 314.567 274.293 312.075 274.297 310.471C269.041 299.34 259.611 288.184 255.553 283.997L228.114 286.509L138.956 277.419C122.041 265.552 79.6188 271.145 85.8935 299.108Z" fill="url(#paint3_linear_22_700)"/>
<path d="M299.123 265.261C294.152 281.315 287.299 284.12 284.494 283.516C254.969 263.759 267.647 243.514 277.677 235.861L303.82 182.033C300.035 179.073 295.818 169.813 296.25 163.974C296.596 159.302 299.783 159.146 301.333 159.652C301.765 154.811 305.262 154.965 306.956 155.647C308.427 150.37 312.687 151.502 314.634 152.728C314.893 145.461 319.933 146.456 322.42 147.861L326.786 159.652C328.569 159.899 332.706 160.472 334.985 160.783C337.833 161.171 341.458 161.689 339.646 165.703C338.196 168.913 330.842 179.901 327.347 184.993C320.01 205.06 304.095 249.208 299.123 265.261Z" fill="url(#paint4_linear_22_700)"/>
<path d="M223.866 312.983H281.438C281.438 316.173 278.852 318.759 275.662 318.759H229.642C226.452 318.759 223.866 316.173 223.866 312.983Z" fill="#B4B4B4"/>
<path d="M299.663 242.215C300.144 241.061 301.272 240.31 302.522 240.31H398.654C400.864 240.31 402.363 242.558 401.512 244.598L371.39 316.853C370.909 318.007 369.781 318.758 368.531 318.758H272.399C270.189 318.758 268.69 316.51 269.541 314.47L299.663 242.215Z" fill="url(#paint5_linear_22_700)"/>
<path d="M138.989 277.394L141.571 257.07" stroke="#30235B" stroke-width="0.619401"/>
<path d="M258.551 274.045C258.164 271.659 257.506 265.893 257.97 261.915" stroke="#30235B" stroke-width="0.619401"/>
<path d="M257.851 266.364L255.63 261.863" stroke="#30235B" stroke-width="0.619401"/>
<path d="M257.064 309.722L249.854 300.62" stroke="#30235B" stroke-width="0.619401"/>
<path d="M263.447 310.172L252.193 295.566" stroke="#30235B" stroke-width="0.619401"/>
<path d="M269.363 311.511L255.374 291.355" stroke="#30235B" stroke-width="0.619401"/>
<path d="M301.328 159.739C301.714 161.744 302.971 166.482 304.917 169.401" stroke="#30235B" stroke-width="0.619401"/>
<path d="M314.657 152.77C315.247 154.838 316.781 159.503 318.203 161.615" stroke="#30235B" stroke-width="0.619401"/>
<path d="M306.877 155.775C307.571 158.027 309.295 162.977 310.635 164.765" stroke="#30235B" stroke-width="0.619401"/>
<path d="M326.729 159.645L328.875 165.922" stroke="#30235B" stroke-width="0.619401"/>
<ellipse cx="339.057" cy="281.402" rx="6.57775" ry="9.52298" transform="rotate(19.8998 339.057 281.402)" fill="white"/>
<rect x="509.043" y="218.297" width="105.766" height="8.6637" transform="rotate(117.371 509.043 218.297)" fill="#E0E0E0"/>
<rect x="434.32" y="305.687" width="48.9009" height="13.0726" rx="3.09701" fill="#30235B"/>
<rect x="503.448" y="219.146" width="56.8108" height="8.6637" transform="rotate(-139.766 503.448 219.146)" fill="#E0E0E0"/>
<rect x="461.001" y="178.678" width="16.7617" height="2.98427" transform="rotate(162.128 461.001 178.678)" fill="#E0E0E0"/>
<circle cx="505.386" cy="215.657" r="6.05235" fill="#30235B"/>
<path d="M457.215 174.304L465.694 175.878L460.092 182.434L457.215 174.304Z" fill="#30235B"/>
<path d="M430.806 171.478C432.76 166.573 438.32 164.179 443.226 166.132C448.131 168.085 450.525 173.645 448.572 178.551L443.172 192.116L425.406 185.043L430.806 171.478Z" fill="#30235B"/>
<path d="M436.44 185.319C416.724 177.577 403.606 194.92 398.974 204.104C412.664 223.621 437.741 225.626 449.105 224.644C453.099 214.761 456.156 193.061 436.44 185.319Z" fill="#30235B"/>
<path d="M37.8472 258.826C25.1608 266.591 21.1688 259.509 20.7586 254.998C20.7586 248.436 20.7586 242.968 12.1461 233.261C-8.63352 210.294 -2.07154 173.657 26.6371 171.333C55.3458 169.009 47.0066 187.191 36.8902 198.948C26.7938 210.681 33.1738 214.245 48.2839 222.685L48.3737 222.735C68.0596 234.628 51.6547 245.292 41.9484 247.206C32.2422 249.119 40.5813 254.998 37.8472 258.826Z" fill="url(#paint6_linear_22_700)"/>
<path d="M163.436 131.679C158.941 130.735 150.024 124.839 150.828 111.292" stroke="#30235B" stroke-width="0.949425"/>
<path d="M226.77 59.0294C224.323 55.3965 218.54 50.0272 206.885 49.4766" stroke="#30235B" stroke-width="0.949425"/>
<path d="M66.6227 291.505C67.6959 279.212 56.3342 276.252 49.3845 276.253C48.549 276.253 47.8359 276.825 47.5936 277.624C47.1976 278.931 48.1998 280.249 49.5615 280.352C55.6984 280.813 63.9735 283.424 62.4471 291.505C60.9658 299.348 54.1688 300.826 49.3567 300.493C48.0308 300.401 46.7881 301.389 46.7881 302.718C46.7881 303.708 47.4883 304.567 48.473 304.67C54.965 305.352 65.5716 303.545 66.6227 291.505Z" fill="url(#paint7_linear_22_700)"/>
<path d="M48.7975 272.428V315.662C48.7975 317.372 47.411 318.759 45.7005 318.759H11.7806C10.0701 318.759 8.68357 317.372 8.68357 315.662L8.6836 272.428C8.6836 270.718 10.0702 269.331 11.7806 269.331H45.7005C47.411 269.331 48.7975 270.718 48.7975 272.428Z" fill="url(#paint8_linear_22_700)"/>
<path d="M277.64 235.813L285.665 219.357" stroke="#30235B" stroke-width="0.949425"/>
<path d="M210.579 284.631C207.911 293.635 209.467 303.806 210.579 307.766L217.996 306.714C216.45 294.915 217.352 287.622 217.996 285.45L210.579 284.631Z" fill="#30235B"/>
<rect x="207.64" y="280.775" width="14.0292" height="3.63722" rx="1.81861" transform="rotate(6.01694 207.64 280.775)" fill="url(#paint9_linear_22_700)"/>
<rect opacity="0.5" x="13.4143" y="0.949425" width="83.3479" height="64.576" rx="3.7977" stroke="#F0F0F0" stroke-width="1.89885"/>
<path d="M64.6177 33.2377C65.6286 33.2377 66.5981 33.6393 67.3129 34.3541C68.0277 35.0689 68.4293 36.0384 68.4293 37.0493V48.4841C68.4293 49.495 68.0277 50.4645 67.3129 51.1793C66.5981 51.8941 65.6286 52.2957 64.6177 52.2957H45.5597C44.5488 52.2957 43.5793 51.8941 42.8644 51.1793C42.1496 50.4645 41.748 49.495 41.748 48.4841V37.0493C41.748 36.0384 42.1496 35.0689 42.8644 34.3541C43.5793 33.6393 44.5488 33.2377 45.5597 33.2377V23.7087C45.5597 21.1814 46.5636 18.7577 48.3506 16.9707C50.1377 15.1836 52.5614 14.1797 55.0887 14.1797C57.6159 14.1797 60.0397 15.1836 61.8267 16.9707C63.6137 18.7577 64.6177 21.1814 64.6177 23.7087V33.2377ZM55.0887 46.5783C56.0996 46.5783 57.0691 46.1767 57.7839 45.4619C58.4987 44.7471 58.9003 43.7776 58.9003 42.7667C58.9003 41.7558 58.4987 40.7863 57.7839 40.0715C57.0691 39.3567 56.0996 38.9551 55.0887 38.9551C54.0778 38.9551 53.1083 39.3567 52.3934 40.0715C51.6786 40.7863 51.2771 41.7558 51.2771 42.7667C51.2771 43.7776 51.6786 44.7471 52.3934 45.4619C53.1083 46.1767 54.0778 46.5783 55.0887 46.5783ZM60.8061 33.2377V23.7087C60.8061 22.1923 60.2037 20.7381 59.1315 19.6659C58.0593 18.5937 56.605 17.9913 55.0887 17.9913C53.5723 17.9913 52.1181 18.5937 51.0458 19.6659C49.9736 20.7381 49.3713 22.1923 49.3713 23.7087V33.2377H60.8061Z" fill="url(#paint10_linear_22_700)"/>
<rect opacity="0.5" x="29.9463" y="6.72949" width="50.834" height="48.8902" fill="white"/>
<rect opacity="0.5" x="270.312" y="1.04708" width="61.5187" height="47.5537" rx="2.54344" stroke="#F0F0F0" stroke-width="1.89885"/>
<g opacity="0.5" clip-path="url(#clip0_22_700)">
<path d="M304.439 10.4371H303.28C303.171 10.1238 302.876 9.89746 302.526 9.89746H299.473C299.123 9.89746 298.828 10.1238 298.719 10.4371H297.56C296.678 10.4371 295.96 11.1549 295.96 12.0371V15.2729H306.039V12.0371C306.039 11.1549 305.322 10.4371 304.439 10.4371ZM304.439 14.4728H297.56V12.0371H298.719C298.828 12.3502 299.123 12.5763 299.473 12.5763H302.526C302.876 12.5763 303.171 12.3502 303.28 12.0371H304.439V14.4728Z" fill="#3B566A"/>
<path d="M316 24.8541H286V17.2726C286 15.7262 287.254 14.4727 288.8 14.4727H313.2C314.746 14.4727 316 15.7262 316 17.2726V24.8541H316Z" fill="#DA4040"/>
<path d="M312.687 38.1026H289.313C287.984 38.1026 286.907 37.0255 286.907 35.6969L286.957 24.8535H315.143L315.093 35.6969C315.093 37.0254 314.016 38.1026 312.687 38.1026Z" fill="#F53838"/>
<path d="M302.998 27.4672L301 29.873L299.002 27.4672V14.4727H302.998V27.4672Z" fill="#E1E6E9"/>
<path d="M302.998 22.1729V25.0458H298.995V22.1729H297.792V26.2488H304.201V22.1729H302.998Z" fill="#3B566A"/>
<path d="M301.396 22.6211H300.596V25.4679H301.396V22.6211Z" fill="#64798A"/>
</g>
<rect opacity="0.5" x="58.5695" y="112.934" width="56.6424" height="43.7512" rx="3.7977" stroke="#E2E2E2" stroke-width="1.89885"/>
<rect opacity="0.5" x="365.802" y="56.219" width="92.5848" height="67.0186" rx="3.7977" stroke="#F7F7F7" stroke-width="1.89885"/>
<rect x="380.339" y="85.3984" width="15.8881" height="22.2278" rx="2.58027" fill="#FF7979"/>
<rect x="404.148" y="71.8311" width="15.8881" height="35.7954" rx="2.58027" fill="#9EFFAE"/>
<rect x="427.959" y="77.6045" width="15.8881" height="30.0219" rx="2.58027" fill="#FFDEAD"/>
<rect opacity="0.5" x="370.47" y="66.4746" width="80.7415" height="48.8762" fill="white"/>
<defs>
<linearGradient id="paint0_linear_22_700" x1="196.213" y1="139.276" x2="185.838" y2="347.066" gradientUnits="userSpaceOnUse">
<stop stop-color="#FF9F81"/>
<stop offset="1" stop-color="#F53838"/>
</linearGradient>
<linearGradient id="paint1_linear_22_700" x1="196.101" y1="83.0316" x2="194.246" y2="175.322" gradientUnits="userSpaceOnUse">
<stop stop-color="#FFEFE0"/>
<stop offset="1" stop-color="#FFBE99"/>
</linearGradient>
<linearGradient id="paint2_linear_22_700" x1="197.507" y1="73.4795" x2="197.507" y2="154.186" gradientUnits="userSpaceOnUse">
<stop stop-color="#FFEFE0"/>
<stop offset="1" stop-color="#FFBE99"/>
</linearGradient>
<linearGradient id="paint3_linear_22_700" x1="179.781" y1="241.416" x2="179.781" y2="311.589" gradientUnits="userSpaceOnUse">
<stop offset="0.0677966" stop-color="#FFEFE0"/>
<stop offset="1" stop-color="#FFBE99"/>
</linearGradient>
<linearGradient id="paint4_linear_22_700" x1="277.582" y1="138.425" x2="345.679" y2="218.121" gradientUnits="userSpaceOnUse">
<stop stop-color="#FFEFE0"/>
<stop offset="1" stop-color="#FFBE99"/>
</linearGradient>
<linearGradient id="paint5_linear_22_700" x1="363.515" y1="181.434" x2="325.323" y2="339.863" gradientUnits="userSpaceOnUse">
<stop offset="0.0171777" stop-color="white"/>
<stop offset="1" stop-color="#D7D7D7"/>
</linearGradient>
<linearGradient id="paint6_linear_22_700" x1="-19.6213" y1="268.822" x2="57.6191" y2="171.13" gradientUnits="userSpaceOnUse">
<stop stop-color="#ECECEC"/>
<stop offset="1" stop-color="#F5F5F5" stop-opacity="0"/>
</linearGradient>
<linearGradient id="paint7_linear_22_700" x1="73.4261" y1="282.237" x2="46.7881" y2="282.822" gradientUnits="userSpaceOnUse">
<stop stop-color="white"/>
<stop offset="1" stop-color="#CCCCCC"/>
</linearGradient>
<linearGradient id="paint8_linear_22_700" x1="28.7406" y1="254.41" x2="28.7406" y2="334.086" gradientUnits="userSpaceOnUse">
<stop stop-color="white"/>
<stop offset="1" stop-color="#CCCCCC"/>
</linearGradient>
<linearGradient id="paint9_linear_22_700" x1="214.388" y1="280.064" x2="214.294" y2="284.472" gradientUnits="userSpaceOnUse">
<stop stop-color="#7F67CE"/>
<stop offset="1" stop-color="#30235B"/>
</linearGradient>
<linearGradient id="paint10_linear_22_700" x1="55.0887" y1="14.1797" x2="55.0887" y2="52.2957" gradientUnits="userSpaceOnUse">
<stop stop-color="#FFD5B7"/>
<stop offset="1" stop-color="#FFAB6D"/>
</linearGradient>
<clipPath id="clip0_22_700">
<rect width="30" height="30" fill="white" transform="translate(286 9)"/>
</clipPath>
</defs>
</svg>
