<svg width="23" height="23" viewBox="0 0 23 23" fill="none" xmlns="http://www.w3.org/2000/svg">
<path d="M11.1951 22.6002C9.67912 22.6002 8.22871 22.305 6.84389 21.7147C5.45908 21.1243 4.26741 20.3298 3.26889 19.3313C2.27036 18.3328 1.47592 17.1411 0.885552 15.7563C0.295184 14.3715 0 12.9211 0 11.4051C0 9.88908 0.295184 8.43867 0.885552 7.05385C1.47592 5.66904 2.27036 4.47737 3.26889 3.47885C4.26741 2.48033 5.45908 1.68588 6.84389 1.09551C8.22871 0.505145 9.67912 0.209961 11.1951 0.209961C12.7111 0.209961 14.1615 0.505145 15.5464 1.09551C16.9312 1.68588 18.1228 2.48033 19.1214 3.47885C20.1199 4.47737 20.9143 5.66904 21.5047 7.05385C22.0951 8.43867 22.3902 9.88908 22.3902 11.4051C22.3902 12.9211 22.0951 14.3715 21.5047 15.7563C20.9143 17.1411 20.1199 18.3328 19.1214 19.3313C18.1228 20.3298 16.9312 21.1243 15.5464 21.7147C14.1615 22.305 12.7111 22.6002 11.1951 22.6002ZM11.1951 1.60935C9.86862 1.60935 8.60042 1.86809 7.39053 2.38558C6.18064 2.90306 5.13839 3.59911 4.26377 4.47373C3.38915 5.34835 2.6931 6.3906 2.17561 7.60049C1.65813 8.81038 1.39939 10.0786 1.39939 11.4051C1.39939 12.7316 1.65813 13.9998 2.17561 15.2097C2.6931 16.4196 3.38915 17.4618 4.26377 18.3364C5.13839 19.2111 6.18064 19.9071 7.39053 20.4246C8.60042 20.9421 9.86862 21.2008 11.1951 21.2008C12.5216 21.2008 13.7898 20.9421 14.9997 20.4246C16.2096 19.9071 17.2519 19.2111 18.1265 18.3364C19.0011 17.4618 19.6971 16.4196 20.2146 15.2097C20.7321 13.9998 20.9909 12.7316 20.9909 11.4051C20.9909 10.0786 20.7321 8.81038 20.2146 7.60049C19.6971 6.3906 19.0011 5.34835 18.1265 4.47373C17.2519 3.59911 16.2096 2.90306 14.9997 2.38558C13.7898 1.86809 12.5216 1.60935 11.1951 1.60935ZM13.9939 14.2039H8.39634V16.3029C8.39634 16.4924 8.3271 16.6564 8.18862 16.7949C8.05014 16.9334 7.88615 17.0026 7.69665 17.0026H6.29726C6.10776 17.0026 5.94376 16.9334 5.80528 16.7949C5.6668 16.6564 5.59756 16.4924 5.59756 16.3029V6.50722C5.59756 6.31772 5.6668 6.15373 5.80528 6.01524C5.94376 5.87676 6.10776 5.80752 6.29726 5.80752H13.9939C15.1601 5.80752 16.1513 6.21568 16.9676 7.03199C17.7839 7.8483 18.1921 8.83953 18.1921 10.0057C18.1921 11.1719 17.7839 12.1631 16.9676 12.9794C16.1513 13.7957 15.1601 14.2039 13.9939 14.2039ZM13.9939 8.6063H8.39634V11.4051H13.9939C14.3875 11.4051 14.7191 11.2702 14.9888 11.0006C15.2585 10.7309 15.3933 10.4029 15.3933 10.0166C15.3933 9.63033 15.2585 9.29871 14.9888 9.02175C14.7191 8.74478 14.3875 8.6063 13.9939 8.6063Z" fill="#F53838"/>
</svg>
