<svg width="439" height="17" viewBox="0 0 439 17" fill="none" xmlns="http://www.w3.org/2000/svg">
<path d="M9.99609 0.402344V13H8.4043V1.79883H2.20312V13H0.601562V0.402344H9.99609ZM14.1953 8.49805C14.1953 8.97982 14.2734 9.41602 14.4297 9.80664C14.5859 10.1973 14.7878 10.5358 15.0352 10.8223C15.2891 11.1022 15.5853 11.3171 15.9238 11.4668C16.2624 11.623 16.6204 11.7012 16.998 11.7012C17.3691 11.7012 17.7272 11.623 18.0723 11.4668C18.4108 11.3105 18.707 11.0957 18.9609 10.8223C19.2148 10.5423 19.4167 10.2038 19.5664 9.80664C19.7227 9.41602 19.8008 8.97982 19.8008 8.49805C19.8008 8.01628 19.7227 7.58008 19.5664 7.18945C19.4102 6.79883 19.2083 6.46354 18.9609 6.18359C18.707 5.90365 18.4108 5.68555 18.0723 5.5293C17.7337 5.37305 17.3757 5.29818 16.998 5.30469C16.627 5.30469 16.2689 5.37956 15.9238 5.5293C15.5853 5.68555 15.2891 5.90365 15.0352 6.18359C14.7812 6.46354 14.5794 6.79883 14.4297 7.18945C14.2734 7.58008 14.1953 8.01628 14.1953 8.49805ZM14.4004 5.00195C14.5892 4.80013 14.8138 4.62109 15.0742 4.46484C15.3021 4.3151 15.582 4.1849 15.9141 4.07422C16.2461 3.96354 16.64 3.90495 17.0957 3.89844C17.6686 3.89844 18.2122 4.01237 18.7266 4.24023C19.2409 4.4681 19.6868 4.78385 20.0645 5.1875C20.4421 5.59115 20.7415 6.07617 20.9629 6.64258C21.1842 7.20247 21.2949 7.82096 21.2949 8.49805C21.2949 9.17513 21.1842 9.79688 20.9629 10.3633C20.7415 10.9232 20.4421 11.4049 20.0645 11.8086C19.6868 12.2122 19.2409 12.528 18.7266 12.7559C18.2122 12.9837 17.6686 13.0977 17.0957 13.0977C16.64 13.0977 16.2461 13.0358 15.9141 12.9121C15.582 12.7884 15.3021 12.6517 15.0742 12.502C14.8073 12.3262 14.5827 12.1243 14.4004 11.8965V16.2031H12.8965V3.99609H14L14.4004 5.00195ZM24.1855 8.49805C24.1855 8.97982 24.2604 9.41602 24.4102 9.80664C24.5599 10.1973 24.7585 10.5358 25.0059 10.8223C25.2598 11.1022 25.5495 11.3171 25.875 11.4668C26.2005 11.623 26.5391 11.7012 26.8906 11.7012C27.2357 11.7012 27.571 11.623 27.8965 11.4668C28.222 11.3105 28.5085 11.0957 28.7559 10.8223C29.0033 10.5423 29.2051 10.2038 29.3613 9.80664C29.5176 9.41602 29.5924 8.97982 29.5859 8.49805C29.5859 8.01628 29.5111 7.58008 29.3613 7.18945C29.2051 6.79883 29.0033 6.46354 28.7559 6.18359C28.5085 5.90365 28.222 5.68555 27.8965 5.5293C27.571 5.37305 27.2357 5.29818 26.8906 5.30469C26.5456 5.30469 26.207 5.37956 25.875 5.5293C25.5495 5.68555 25.2598 5.90365 25.0059 6.18359C24.752 6.46354 24.5534 6.79883 24.4102 7.18945C24.2604 7.58008 24.1855 8.01628 24.1855 8.49805ZM31.0898 8.49805C31.0898 9.17513 30.9792 9.79688 30.7578 10.3633C30.5365 10.9232 30.237 11.4049 29.8594 11.8086C29.4818 12.2122 29.0358 12.528 28.5215 12.7559C28.0072 12.9837 27.4635 13.0977 26.8906 13.0977C26.3177 13.0977 25.7741 12.9837 25.2598 12.7559C24.7454 12.528 24.2995 12.2122 23.9219 11.8086C23.5443 11.4049 23.2415 10.9232 23.0137 10.3633C22.7923 9.80339 22.6849 9.18164 22.6914 8.49805C22.6914 7.82096 22.7988 7.20247 23.0137 6.64258C23.235 6.08268 23.5378 5.59766 23.9219 5.1875C24.2995 4.78385 24.7454 4.4681 25.2598 4.24023C25.7741 4.01237 26.3177 3.89844 26.8906 3.89844C27.4635 3.89844 28.0072 4.01237 28.5215 4.24023C29.0358 4.4681 29.4818 4.78385 29.8594 5.1875C30.237 5.59115 30.5365 6.07617 30.7578 6.64258C30.9792 7.20247 31.0898 7.82096 31.0898 8.49805ZM40.3965 10.5977C40.2467 10.9167 40.0579 11.2292 39.8301 11.5352C39.6022 11.8411 39.3353 12.1081 39.0293 12.3359C38.7233 12.5638 38.3783 12.7493 37.9941 12.8926C37.61 13.0358 37.1771 13.1042 36.6953 13.0977C36.1224 13.0977 35.5788 12.9837 35.0645 12.7559C34.5501 12.528 34.1042 12.2122 33.7266 11.8086C33.349 11.4049 33.0462 10.9232 32.8184 10.3633C32.597 9.80339 32.4896 9.18164 32.4961 8.49805C32.4961 7.82096 32.6035 7.20247 32.8184 6.64258C33.0397 6.08268 33.3392 5.59766 33.7168 5.1875C34.0879 4.78385 34.5241 4.4681 35.0254 4.24023C35.5267 4.01237 36.0508 3.89844 36.5977 3.89844C37.1445 3.89844 37.6589 4.00586 38.1406 4.2207C38.6289 4.43555 39.0521 4.73828 39.4102 5.12891C39.7682 5.51953 40.0547 5.99479 40.2695 6.55469C40.4844 7.10807 40.5918 7.72331 40.5918 8.40039C40.5918 8.5306 40.5853 8.64453 40.5723 8.74219C40.5592 8.83333 40.5462 8.91146 40.5332 8.97656C40.5202 9.05469 40.5072 9.12956 40.4941 9.20117H34.0977C34.1237 9.52018 34.2116 9.83268 34.3613 10.1387C34.5176 10.4447 34.7129 10.7116 34.9473 10.9395C35.1816 11.1673 35.4518 11.3496 35.7578 11.4863C36.0638 11.6296 36.3763 11.7012 36.6953 11.7012C36.9753 11.7012 37.2259 11.6621 37.4473 11.584C37.6686 11.5059 37.8672 11.4115 38.043 11.3008C38.2253 11.1966 38.375 11.0794 38.4922 10.9492C38.6094 10.8255 38.7103 10.7083 38.7949 10.5977H40.3965ZM36.5977 5.30469C36.2917 5.30469 35.9987 5.36979 35.7188 5.5C35.4453 5.63021 35.1979 5.80924 34.9766 6.03711C34.7487 6.26497 34.5566 6.53841 34.4004 6.85742C34.2441 7.17643 34.1432 7.52474 34.0977 7.90234H38.9902C38.8861 7.10156 38.6094 6.4668 38.1602 5.99805C37.7174 5.53581 37.1966 5.30469 36.5977 5.30469ZM44.0879 13H42.584V3.99609H44.0879V13ZM47.8867 13L44.0879 8.30273L47.4863 3.99609H49.1855L45.7871 8.19531L49.6836 13H47.8867ZM49.8887 3.99609H56.9883V5.40234H54.1855V13H52.6816V5.40234H49.8887V3.99609ZM68.082 3.99609V13H66.5781V3.99609H68.082ZM62.0859 7.19922C63.043 7.19922 63.7982 7.4694 64.3516 8.00977C64.9049 8.55013 65.1816 9.24674 65.1816 10.0996C65.1816 10.9525 64.9049 11.6491 64.3516 12.1895C63.7982 12.7298 63.043 13 62.0859 13H58.5801V3.99609H60.084V7.19922H62.0859ZM62.0859 11.6035C62.5417 11.6035 62.9193 11.4538 63.2188 11.1543C63.5247 10.8483 63.6777 10.4967 63.6777 10.0996C63.6777 9.70247 63.5247 9.35417 63.2188 9.05469C62.9128 8.7487 62.5352 8.5957 62.0859 8.5957H60.084V11.6035H62.0859ZM103.668 6.30078C104.013 6.47656 104.329 6.70443 104.615 6.98438C104.856 7.22526 105.074 7.54427 105.27 7.94141C105.471 8.33854 105.572 8.82357 105.572 9.39648C105.572 9.86523 105.471 10.3177 105.27 10.7539C105.068 11.1901 104.788 11.571 104.43 11.8965C104.072 12.2285 103.648 12.4954 103.16 12.6973C102.672 12.8991 102.141 13 101.568 13H96.7734V0.402344H101.471C101.992 0.402344 102.473 0.486979 102.916 0.65625C103.359 0.832031 103.736 1.07292 104.049 1.37891C104.368 1.6849 104.618 2.04622 104.801 2.46289C104.983 2.87305 105.074 3.31901 105.074 3.80078C105.074 4.25651 104.999 4.64062 104.85 4.95312C104.7 5.26562 104.54 5.52279 104.371 5.72461C104.156 5.95898 103.922 6.15104 103.668 6.30078ZM98.375 5.69531H101.471C101.764 5.69531 102.04 5.64323 102.301 5.53906C102.561 5.4349 102.786 5.29492 102.975 5.11914C103.163 4.94336 103.31 4.74479 103.414 4.52344C103.518 4.29557 103.57 4.05469 103.57 3.80078C103.57 3.52083 103.518 3.26042 103.414 3.01953C103.31 2.77865 103.163 2.57031 102.975 2.39453C102.786 2.21224 102.561 2.06901 102.301 1.96484C102.04 1.86068 101.764 1.80534 101.471 1.79883H98.375V5.69531ZM101.568 11.6035C102.278 11.6035 102.857 11.3822 103.307 10.9395C103.756 10.4967 103.977 9.94987 103.971 9.29883C103.971 9.00586 103.912 8.72591 103.795 8.45898C103.678 8.19206 103.508 7.95768 103.287 7.75586C103.072 7.55404 102.822 7.39453 102.535 7.27734C102.242 7.16016 101.92 7.10156 101.568 7.10156H98.375V11.6035H101.568ZM111.061 3.89844C111.555 3.89844 112.014 3.98307 112.438 4.15234C112.861 4.32161 113.219 4.54297 113.512 4.81641C113.811 5.09635 114.046 5.42513 114.215 5.80273C114.384 6.17383 114.465 6.57422 114.459 7.00391V13H113.365L112.965 12.0039C112.763 12.2188 112.535 12.4043 112.281 12.5605C112.053 12.7103 111.773 12.8372 111.441 12.9414C111.109 13.0456 110.715 13.0977 110.26 13.0977C109.804 13.0977 109.394 13.0293 109.029 12.8926C108.665 12.7493 108.352 12.554 108.092 12.3066C107.831 12.0592 107.63 11.7728 107.486 11.4473C107.337 11.1217 107.262 10.7734 107.262 10.4023C107.262 9.97266 107.35 9.58203 107.525 9.23047C107.701 8.87891 108.001 8.57292 108.424 8.3125C108.854 8.05208 109.436 7.85026 110.172 7.70703C110.914 7.5638 111.845 7.49544 112.965 7.50195V7.00391C112.965 6.54818 112.789 6.15104 112.438 5.8125C112.086 5.47396 111.627 5.30469 111.061 5.30469C110.501 5.30469 110.087 5.41862 109.82 5.64648C109.553 5.88086 109.368 6.19987 109.264 6.60352H107.662C107.714 6.23242 107.828 5.88086 108.004 5.54883C108.18 5.22331 108.411 4.93685 108.697 4.68945C108.984 4.44206 109.322 4.25 109.713 4.11328C110.104 3.97005 110.553 3.89844 111.061 3.89844ZM110.26 11.7012C110.657 11.7012 111.025 11.6361 111.363 11.5059C111.695 11.3822 111.979 11.2194 112.213 11.0176C112.447 10.8158 112.63 10.5944 112.76 10.3535C112.89 10.1061 112.958 9.85547 112.965 9.60156V8.89844C112.06 8.89844 111.334 8.93424 110.787 9.00586C110.24 9.07747 109.817 9.1849 109.518 9.32812C109.218 9.47135 109.016 9.63737 108.912 9.82617C108.814 10.0215 108.766 10.2461 108.766 10.5C108.766 10.806 108.902 11.0827 109.176 11.3301C109.443 11.5775 109.804 11.7012 110.26 11.7012ZM118.463 13H116.959V3.99609H118.463V13ZM122.262 13L118.463 8.30273L121.861 3.99609H123.561L120.162 8.19531L124.059 13H122.262ZM128.658 3.89844C129.153 3.89844 129.612 3.98307 130.035 4.15234C130.458 4.32161 130.816 4.54297 131.109 4.81641C131.409 5.09635 131.643 5.42513 131.812 5.80273C131.982 6.17383 132.063 6.57422 132.057 7.00391V13H130.963L130.562 12.0039C130.361 12.2188 130.133 12.4043 129.879 12.5605C129.651 12.7103 129.371 12.8372 129.039 12.9414C128.707 13.0456 128.313 13.0977 127.857 13.0977C127.402 13.0977 126.992 13.0293 126.627 12.8926C126.262 12.7493 125.95 12.554 125.689 12.3066C125.429 12.0592 125.227 11.7728 125.084 11.4473C124.934 11.1217 124.859 10.7734 124.859 10.4023C124.859 9.97266 124.947 9.58203 125.123 9.23047C125.299 8.87891 125.598 8.57292 126.021 8.3125C126.451 8.05208 127.034 7.85026 127.77 7.70703C128.512 7.5638 129.443 7.49544 130.562 7.50195V7.00391C130.562 6.54818 130.387 6.15104 130.035 5.8125C129.684 5.47396 129.225 5.30469 128.658 5.30469C128.098 5.30469 127.685 5.41862 127.418 5.64648C127.151 5.88086 126.965 6.19987 126.861 6.60352H125.26C125.312 6.23242 125.426 5.88086 125.602 5.54883C125.777 5.22331 126.008 4.93685 126.295 4.68945C126.581 4.44206 126.92 4.25 127.311 4.11328C127.701 3.97005 128.15 3.89844 128.658 3.89844ZM127.857 11.7012C128.255 11.7012 128.622 11.6361 128.961 11.5059C129.293 11.3822 129.576 11.2194 129.811 11.0176C130.045 10.8158 130.227 10.5944 130.357 10.3535C130.488 10.1061 130.556 9.85547 130.562 9.60156V8.89844C129.658 8.89844 128.932 8.93424 128.385 9.00586C127.838 9.07747 127.415 9.1849 127.115 9.32812C126.816 9.47135 126.614 9.63737 126.51 9.82617C126.412 10.0215 126.363 10.2461 126.363 10.5C126.363 10.806 126.5 11.0827 126.773 11.3301C127.04 11.5775 127.402 11.7012 127.857 11.7012ZM142.154 3.99609V13H140.66V9.10352H136.061V13H134.557V3.99609H136.061V7.69727H140.66V3.99609H142.154ZM148.355 5.30469C148.01 5.30469 147.672 5.37956 147.34 5.5293C147.014 5.68555 146.725 5.90365 146.471 6.18359C146.217 6.46354 146.018 6.79883 145.875 7.18945C145.725 7.58008 145.65 8.01628 145.65 8.49805C145.65 8.97982 145.725 9.41602 145.875 9.80664C146.025 10.1973 146.223 10.5358 146.471 10.8223C146.725 11.1022 147.014 11.3171 147.34 11.4668C147.665 11.623 148.004 11.7012 148.355 11.7012C148.648 11.7012 148.925 11.6458 149.186 11.5352C149.446 11.431 149.677 11.291 149.879 11.1152C150.087 10.9395 150.266 10.7409 150.416 10.5195C150.566 10.2917 150.68 10.0508 150.758 9.79688H152.252C152.148 10.2526 151.982 10.679 151.754 11.0762C151.526 11.4733 151.243 11.8249 150.904 12.1309C150.566 12.4303 150.178 12.668 149.742 12.8438C149.306 13.0195 148.844 13.1042 148.355 13.0977C147.783 13.0977 147.239 12.9837 146.725 12.7559C146.21 12.528 145.764 12.2122 145.387 11.8086C145.009 11.4049 144.706 10.9232 144.479 10.3633C144.257 9.80339 144.15 9.18164 144.156 8.49805C144.156 7.82096 144.264 7.20247 144.479 6.64258C144.7 6.08268 145.003 5.59766 145.387 5.1875C145.764 4.78385 146.21 4.4681 146.725 4.24023C147.239 4.01237 147.783 3.89844 148.355 3.89844C148.85 3.89844 149.312 3.98633 149.742 4.16211C150.178 4.33789 150.566 4.57227 150.904 4.86523C151.243 5.16471 151.526 5.51628 151.754 5.91992C151.982 6.31706 152.148 6.74349 152.252 7.19922H150.758C150.68 6.94531 150.566 6.70443 150.416 6.47656C150.266 6.2487 150.087 6.05013 149.879 5.88086C149.671 5.70508 149.439 5.5651 149.186 5.46094C148.925 5.35677 148.648 5.30469 148.355 5.30469ZM161.744 3.99609V13H160.25V6.30078L155.65 13H154.146V3.99609H155.65V10.6953L160.25 3.99609H161.744ZM171.939 3.99609V13H170.445V6.30078L165.846 13H164.342V3.99609H165.846V10.6953L170.445 3.99609H171.939ZM204.918 0.402344C205.465 0.402344 205.982 0.50651 206.471 0.714844C206.959 0.923177 207.382 1.20638 207.74 1.56445C208.098 1.92253 208.385 2.33919 208.6 2.81445C208.814 3.28971 208.922 3.78451 208.922 4.29883C208.922 4.81966 208.814 5.31771 208.6 5.79297C208.385 6.26823 208.098 6.6849 207.74 7.04297C207.382 7.40104 206.959 7.68424 206.471 7.89258C205.982 8.10091 205.465 8.20182 204.918 8.19531H202.223V13H200.621V0.402344H204.918ZM204.918 6.79883C205.237 6.79883 205.543 6.73698 205.836 6.61328C206.129 6.48958 206.386 6.31055 206.607 6.07617C206.829 5.84831 207.001 5.58138 207.125 5.27539C207.249 4.9694 207.314 4.64388 207.32 4.29883C207.32 3.95378 207.255 3.62826 207.125 3.32227C207.001 3.01628 206.829 2.74935 206.607 2.52148C206.386 2.29362 206.129 2.11784 205.836 1.99414C205.543 1.87044 205.237 1.80534 204.918 1.79883H202.223V6.79883H204.918ZM218.131 10.5977C217.981 10.9167 217.792 11.2292 217.564 11.5352C217.337 11.8411 217.07 12.1081 216.764 12.3359C216.458 12.5638 216.113 12.7493 215.729 12.8926C215.344 13.0358 214.911 13.1042 214.43 13.0977C213.857 13.0977 213.313 12.9837 212.799 12.7559C212.285 12.528 211.839 12.2122 211.461 11.8086C211.083 11.4049 210.781 10.9232 210.553 10.3633C210.331 9.80339 210.224 9.18164 210.23 8.49805C210.23 7.82096 210.338 7.20247 210.553 6.64258C210.774 6.08268 211.074 5.59766 211.451 5.1875C211.822 4.78385 212.258 4.4681 212.76 4.24023C213.261 4.01237 213.785 3.89844 214.332 3.89844C214.879 3.89844 215.393 4.00586 215.875 4.2207C216.363 4.43555 216.786 4.73828 217.145 5.12891C217.503 5.51953 217.789 5.99479 218.004 6.55469C218.219 7.10807 218.326 7.72331 218.326 8.40039C218.326 8.5306 218.32 8.64453 218.307 8.74219C218.294 8.83333 218.281 8.91146 218.268 8.97656C218.255 9.05469 218.242 9.12956 218.229 9.20117H211.832C211.858 9.52018 211.946 9.83268 212.096 10.1387C212.252 10.4447 212.447 10.7116 212.682 10.9395C212.916 11.1673 213.186 11.3496 213.492 11.4863C213.798 11.6296 214.111 11.7012 214.43 11.7012C214.71 11.7012 214.96 11.6621 215.182 11.584C215.403 11.5059 215.602 11.4115 215.777 11.3008C215.96 11.1966 216.109 11.0794 216.227 10.9492C216.344 10.8255 216.445 10.7083 216.529 10.5977H218.131ZM214.332 5.30469C214.026 5.30469 213.733 5.36979 213.453 5.5C213.18 5.63021 212.932 5.80924 212.711 6.03711C212.483 6.26497 212.291 6.53841 212.135 6.85742C211.979 7.17643 211.878 7.52474 211.832 7.90234H216.725C216.62 7.10156 216.344 6.4668 215.895 5.99805C215.452 5.53581 214.931 5.30469 214.332 5.30469ZM224.518 8.40039C224.758 8.5306 224.973 8.6901 225.162 8.87891C225.325 9.04167 225.475 9.25 225.611 9.50391C225.755 9.75781 225.826 10.0573 225.826 10.4023C225.826 10.7734 225.751 11.1217 225.602 11.4473C225.458 11.7728 225.253 12.0592 224.986 12.3066C224.719 12.554 224.394 12.7493 224.01 12.8926C223.632 13.0293 223.202 13.0977 222.721 13.0977C221.718 13.0977 220.93 12.8307 220.357 12.2969C219.785 11.763 219.472 11.099 219.42 10.3047H220.924C220.976 10.7018 221.148 11.0339 221.441 11.3008C221.734 11.5677 222.161 11.7012 222.721 11.7012C223.229 11.7012 223.622 11.571 223.902 11.3105C224.182 11.0501 224.322 10.7474 224.322 10.4023C224.322 10.0573 224.179 9.75456 223.893 9.49414C223.606 9.23372 223.215 9.10352 222.721 9.10352H221.92V7.69727H222.721C223.118 7.69727 223.45 7.58659 223.717 7.36523C223.984 7.13737 224.117 6.84766 224.117 6.49609C224.117 6.15104 223.984 5.86784 223.717 5.64648C223.456 5.41862 223.124 5.30469 222.721 5.30469C222.161 5.30469 221.751 5.4349 221.49 5.69531C221.23 5.94922 221.074 6.25195 221.021 6.60352H219.518C219.57 5.80273 219.866 5.15169 220.406 4.65039C220.953 4.14909 221.725 3.89844 222.721 3.89844C223.15 3.89844 223.541 3.97005 223.893 4.11328C224.244 4.25 224.55 4.4388 224.811 4.67969C225.071 4.92057 225.27 5.19727 225.406 5.50977C225.549 5.82227 225.621 6.15104 225.621 6.49609C225.621 6.82812 225.562 7.11133 225.445 7.3457C225.335 7.58008 225.208 7.77865 225.064 7.94141C224.902 8.13021 224.719 8.2832 224.518 8.40039ZM227.916 3.99609H229.42V7.90234H231.021C231.1 7.32943 231.256 6.79883 231.49 6.31055C231.725 5.82227 232.021 5.39909 232.379 5.04102C232.737 4.68294 233.137 4.40299 233.58 4.20117C234.029 3.99935 234.508 3.89844 235.016 3.89844C235.536 3.89844 236.041 4.01237 236.529 4.24023C237.018 4.4681 237.444 4.78711 237.809 5.19727C238.173 5.60091 238.466 6.08268 238.688 6.64258C238.909 7.20247 239.02 7.82096 239.02 8.49805C239.02 9.17513 238.909 9.79688 238.688 10.3633C238.466 10.9232 238.173 11.4082 237.809 11.8184C237.444 12.222 237.018 12.5378 236.529 12.7656C236.041 12.987 235.536 13.0977 235.016 13.0977C234.508 13.0977 234.029 13 233.58 12.8047C233.137 12.6029 232.737 12.3294 232.379 11.9844C232.021 11.6328 231.725 11.2194 231.49 10.7441C231.256 10.2624 231.1 9.74805 231.021 9.20117H229.42V13H227.916V3.99609ZM232.516 8.49805C232.516 8.97982 232.587 9.41927 232.73 9.81641C232.88 10.207 233.076 10.5423 233.316 10.8223C233.557 11.1022 233.824 11.3203 234.117 11.4766C234.41 11.6263 234.71 11.7012 235.016 11.7012C235.309 11.7012 235.605 11.6263 235.904 11.4766C236.204 11.3203 236.474 11.1022 236.715 10.8223C236.956 10.5423 237.148 10.207 237.291 9.81641C237.441 9.41927 237.516 8.97982 237.516 8.49805C237.516 8.01628 237.441 7.58008 237.291 7.18945C237.148 6.79883 236.956 6.46354 236.715 6.18359C236.474 5.90365 236.204 5.6888 235.904 5.53906C235.605 5.38281 235.309 5.30469 235.016 5.30469C234.71 5.30469 234.41 5.38281 234.117 5.53906C233.824 5.6888 233.557 5.90365 233.316 6.18359C233.076 6.46354 232.88 6.79883 232.73 7.18945C232.587 7.58008 232.516 8.01628 232.516 8.49805ZM245.221 13L242.525 7.4043V13H241.021V3.99609H242.32L245.719 10.998L249.127 3.99609H250.426V13H248.922V7.4043L246.227 13H245.221ZM260.318 10.5977C260.169 10.9167 259.98 11.2292 259.752 11.5352C259.524 11.8411 259.257 12.1081 258.951 12.3359C258.645 12.5638 258.3 12.7493 257.916 12.8926C257.532 13.0358 257.099 13.1042 256.617 13.0977C256.044 13.0977 255.501 12.9837 254.986 12.7559C254.472 12.528 254.026 12.2122 253.648 11.8086C253.271 11.4049 252.968 10.9232 252.74 10.3633C252.519 9.80339 252.411 9.18164 252.418 8.49805C252.418 7.82096 252.525 7.20247 252.74 6.64258C252.962 6.08268 253.261 5.59766 253.639 5.1875C254.01 4.78385 254.446 4.4681 254.947 4.24023C255.449 4.01237 255.973 3.89844 256.52 3.89844C257.066 3.89844 257.581 4.00586 258.062 4.2207C258.551 4.43555 258.974 4.73828 259.332 5.12891C259.69 5.51953 259.977 5.99479 260.191 6.55469C260.406 7.10807 260.514 7.72331 260.514 8.40039C260.514 8.5306 260.507 8.64453 260.494 8.74219C260.481 8.83333 260.468 8.91146 260.455 8.97656C260.442 9.05469 260.429 9.12956 260.416 9.20117H254.02C254.046 9.52018 254.133 9.83268 254.283 10.1387C254.439 10.4447 254.635 10.7116 254.869 10.9395C255.104 11.1673 255.374 11.3496 255.68 11.4863C255.986 11.6296 256.298 11.7012 256.617 11.7012C256.897 11.7012 257.148 11.6621 257.369 11.584C257.59 11.5059 257.789 11.4115 257.965 11.3008C258.147 11.1966 258.297 11.0794 258.414 10.9492C258.531 10.8255 258.632 10.7083 258.717 10.5977H260.318ZM256.52 5.30469C256.214 5.30469 255.921 5.36979 255.641 5.5C255.367 5.63021 255.12 5.80924 254.898 6.03711C254.671 6.26497 254.479 6.53841 254.322 6.85742C254.166 7.17643 254.065 7.52474 254.02 7.90234H258.912C258.808 7.10156 258.531 6.4668 258.082 5.99805C257.639 5.53581 257.118 5.30469 256.52 5.30469ZM295.484 6.30078C295.829 6.47656 296.145 6.70443 296.432 6.98438C296.673 7.22526 296.891 7.54427 297.086 7.94141C297.288 8.33854 297.389 8.82357 297.389 9.39648C297.389 9.86523 297.288 10.3177 297.086 10.7539C296.884 11.1901 296.604 11.571 296.246 11.8965C295.888 12.2285 295.465 12.4954 294.977 12.6973C294.488 12.8991 293.958 13 293.385 13H288.59V0.402344H293.287C293.808 0.402344 294.29 0.486979 294.732 0.65625C295.175 0.832031 295.553 1.07292 295.865 1.37891C296.184 1.6849 296.435 2.04622 296.617 2.46289C296.799 2.87305 296.891 3.31901 296.891 3.80078C296.891 4.25651 296.816 4.64062 296.666 4.95312C296.516 5.26562 296.357 5.52279 296.188 5.72461C295.973 5.95898 295.738 6.15104 295.484 6.30078ZM290.191 5.69531H293.287C293.58 5.69531 293.857 5.64323 294.117 5.53906C294.378 5.4349 294.602 5.29492 294.791 5.11914C294.98 4.94336 295.126 4.74479 295.23 4.52344C295.335 4.29557 295.387 4.05469 295.387 3.80078C295.387 3.52083 295.335 3.26042 295.23 3.01953C295.126 2.77865 294.98 2.57031 294.791 2.39453C294.602 2.21224 294.378 2.06901 294.117 1.96484C293.857 1.86068 293.58 1.80534 293.287 1.79883H290.191V5.69531ZM293.385 11.6035C294.094 11.6035 294.674 11.3822 295.123 10.9395C295.572 10.4967 295.794 9.94987 295.787 9.29883C295.787 9.00586 295.729 8.72591 295.611 8.45898C295.494 8.19206 295.325 7.95768 295.104 7.75586C294.889 7.55404 294.638 7.39453 294.352 7.27734C294.059 7.16016 293.736 7.10156 293.385 7.10156H290.191V11.6035H293.385ZM307.076 3.99609V13H305.582V6.30078L300.982 13H299.479V3.99609H300.982V10.6953L305.582 3.99609H307.076ZM317.779 11.6035V15.1973H316.373V13H309.771V15.1973H308.375V11.6035H308.873C309.075 11.4538 309.254 11.278 309.41 11.0762C309.56 10.9004 309.697 10.6953 309.82 10.4609C309.951 10.2201 310.035 9.93359 310.074 9.60156L310.68 3.99609H316.578V11.6035H317.779ZM311.578 9.60156C311.552 9.93359 311.487 10.2201 311.383 10.4609C311.285 10.7018 311.181 10.9069 311.07 11.0762C310.94 11.278 310.81 11.4538 310.68 11.6035H315.074V5.40234H312.018L311.578 9.60156ZM326.783 10.5977C326.633 10.9167 326.445 11.2292 326.217 11.5352C325.989 11.8411 325.722 12.1081 325.416 12.3359C325.11 12.5638 324.765 12.7493 324.381 12.8926C323.997 13.0358 323.564 13.1042 323.082 13.0977C322.509 13.0977 321.965 12.9837 321.451 12.7559C320.937 12.528 320.491 12.2122 320.113 11.8086C319.736 11.4049 319.433 10.9232 319.205 10.3633C318.984 9.80339 318.876 9.18164 318.883 8.49805C318.883 7.82096 318.99 7.20247 319.205 6.64258C319.426 6.08268 319.726 5.59766 320.104 5.1875C320.475 4.78385 320.911 4.4681 321.412 4.24023C321.913 4.01237 322.438 3.89844 322.984 3.89844C323.531 3.89844 324.046 4.00586 324.527 4.2207C325.016 4.43555 325.439 4.73828 325.797 5.12891C326.155 5.51953 326.441 5.99479 326.656 6.55469C326.871 7.10807 326.979 7.72331 326.979 8.40039C326.979 8.5306 326.972 8.64453 326.959 8.74219C326.946 8.83333 326.933 8.91146 326.92 8.97656C326.907 9.05469 326.894 9.12956 326.881 9.20117H320.484C320.51 9.52018 320.598 9.83268 320.748 10.1387C320.904 10.4447 321.1 10.7116 321.334 10.9395C321.568 11.1673 321.839 11.3496 322.145 11.4863C322.451 11.6296 322.763 11.7012 323.082 11.7012C323.362 11.7012 323.613 11.6621 323.834 11.584C324.055 11.5059 324.254 11.4115 324.43 11.3008C324.612 11.1966 324.762 11.0794 324.879 10.9492C324.996 10.8255 325.097 10.7083 325.182 10.5977H326.783ZM322.984 5.30469C322.678 5.30469 322.385 5.36979 322.105 5.5C321.832 5.63021 321.585 5.80924 321.363 6.03711C321.135 6.26497 320.943 6.53841 320.787 6.85742C320.631 7.17643 320.53 7.52474 320.484 7.90234H325.377C325.273 7.10156 324.996 6.4668 324.547 5.99805C324.104 5.53581 323.583 5.30469 322.984 5.30469ZM329.869 8.49805C329.869 8.97982 329.944 9.41602 330.094 9.80664C330.243 10.1973 330.442 10.5358 330.689 10.8223C330.943 11.1022 331.233 11.3171 331.559 11.4668C331.884 11.623 332.223 11.7012 332.574 11.7012C332.919 11.7012 333.255 11.623 333.58 11.4668C333.906 11.3105 334.192 11.0957 334.439 10.8223C334.687 10.5423 334.889 10.2038 335.045 9.80664C335.201 9.41602 335.276 8.97982 335.27 8.49805C335.27 8.01628 335.195 7.58008 335.045 7.18945C334.889 6.79883 334.687 6.46354 334.439 6.18359C334.192 5.90365 333.906 5.68555 333.58 5.5293C333.255 5.37305 332.919 5.29818 332.574 5.30469C332.229 5.30469 331.891 5.37956 331.559 5.5293C331.233 5.68555 330.943 5.90365 330.689 6.18359C330.436 6.46354 330.237 6.79883 330.094 7.18945C329.944 7.58008 329.869 8.01628 329.869 8.49805ZM336.773 8.49805C336.773 9.17513 336.663 9.79688 336.441 10.3633C336.22 10.9232 335.921 11.4049 335.543 11.8086C335.165 12.2122 334.719 12.528 334.205 12.7559C333.691 12.9837 333.147 13.0977 332.574 13.0977C332.001 13.0977 331.458 12.9837 330.943 12.7559C330.429 12.528 329.983 12.2122 329.605 11.8086C329.228 11.4049 328.925 10.9232 328.697 10.3633C328.476 9.80339 328.368 9.18164 328.375 8.49805C328.375 7.82096 328.482 7.20247 328.697 6.64258C328.919 6.08268 329.221 5.59766 329.605 5.1875C329.983 4.78385 330.429 4.4681 330.943 4.24023C331.458 4.01237 332.001 3.89844 332.574 3.89844C333.147 3.89844 333.691 4.01237 334.205 4.24023C334.719 4.4681 335.165 4.78385 335.543 5.1875C335.921 5.59115 336.22 6.07617 336.441 6.64258C336.663 7.20247 336.773 7.82096 336.773 8.49805ZM343.678 8.49805H338.18V7.19922H343.678V8.49805ZM353.268 3.99609V13H351.773V6.30078L347.174 13H345.67V3.99609H347.174V10.6953L351.773 3.99609H353.268ZM363.463 3.99609V13H361.969V9.10352H357.369V13H355.865V3.99609H357.369V7.69727H361.969V3.99609H363.463ZM369.664 5.30469C369.319 5.30469 368.98 5.37956 368.648 5.5293C368.323 5.68555 368.033 5.90365 367.779 6.18359C367.525 6.46354 367.327 6.79883 367.184 7.18945C367.034 7.58008 366.959 8.01628 366.959 8.49805C366.959 8.97982 367.034 9.41602 367.184 9.80664C367.333 10.1973 367.532 10.5358 367.779 10.8223C368.033 11.1022 368.323 11.3171 368.648 11.4668C368.974 11.623 369.312 11.7012 369.664 11.7012C369.957 11.7012 370.234 11.6458 370.494 11.5352C370.755 11.431 370.986 11.291 371.188 11.1152C371.396 10.9395 371.575 10.7409 371.725 10.5195C371.874 10.2917 371.988 10.0508 372.066 9.79688H373.561C373.456 10.2526 373.29 10.679 373.062 11.0762C372.835 11.4733 372.551 11.8249 372.213 12.1309C371.874 12.4303 371.487 12.668 371.051 12.8438C370.615 13.0195 370.152 13.1042 369.664 13.0977C369.091 13.0977 368.548 12.9837 368.033 12.7559C367.519 12.528 367.073 12.2122 366.695 11.8086C366.318 11.4049 366.015 10.9232 365.787 10.3633C365.566 9.80339 365.458 9.18164 365.465 8.49805C365.465 7.82096 365.572 7.20247 365.787 6.64258C366.008 6.08268 366.311 5.59766 366.695 5.1875C367.073 4.78385 367.519 4.4681 368.033 4.24023C368.548 4.01237 369.091 3.89844 369.664 3.89844C370.159 3.89844 370.621 3.98633 371.051 4.16211C371.487 4.33789 371.874 4.57227 372.213 4.86523C372.551 5.16471 372.835 5.51628 373.062 5.91992C373.29 6.31706 373.456 6.74349 373.561 7.19922H372.066C371.988 6.94531 371.874 6.70443 371.725 6.47656C371.575 6.2487 371.396 6.05013 371.188 5.88086C370.979 5.70508 370.748 5.5651 370.494 5.46094C370.234 5.35677 369.957 5.30469 369.664 5.30469ZM374.459 3.99609H381.559V5.40234H378.756V13H377.252V5.40234H374.459V3.99609ZM384.449 8.49805C384.449 8.97982 384.527 9.41602 384.684 9.80664C384.84 10.1973 385.042 10.5358 385.289 10.8223C385.543 11.1022 385.839 11.3171 386.178 11.4668C386.516 11.623 386.874 11.7012 387.252 11.7012C387.623 11.7012 387.981 11.623 388.326 11.4668C388.665 11.3105 388.961 11.0957 389.215 10.8223C389.469 10.5423 389.671 10.2038 389.82 9.80664C389.977 9.41602 390.055 8.97982 390.055 8.49805C390.055 8.01628 389.977 7.58008 389.82 7.18945C389.664 6.79883 389.462 6.46354 389.215 6.18359C388.961 5.90365 388.665 5.68555 388.326 5.5293C387.988 5.37305 387.63 5.29818 387.252 5.30469C386.881 5.30469 386.523 5.37956 386.178 5.5293C385.839 5.68555 385.543 5.90365 385.289 6.18359C385.035 6.46354 384.833 6.79883 384.684 7.18945C384.527 7.58008 384.449 8.01628 384.449 8.49805ZM384.654 5.00195C384.843 4.80013 385.068 4.62109 385.328 4.46484C385.556 4.3151 385.836 4.1849 386.168 4.07422C386.5 3.96354 386.894 3.90495 387.35 3.89844C387.923 3.89844 388.466 4.01237 388.98 4.24023C389.495 4.4681 389.941 4.78385 390.318 5.1875C390.696 5.59115 390.995 6.07617 391.217 6.64258C391.438 7.20247 391.549 7.82096 391.549 8.49805C391.549 9.17513 391.438 9.79688 391.217 10.3633C390.995 10.9232 390.696 11.4049 390.318 11.8086C389.941 12.2122 389.495 12.528 388.98 12.7559C388.466 12.9837 387.923 13.0977 387.35 13.0977C386.894 13.0977 386.5 13.0358 386.168 12.9121C385.836 12.7884 385.556 12.6517 385.328 12.502C385.061 12.3262 384.837 12.1243 384.654 11.8965V16.2031H383.15V3.99609H384.254L384.654 5.00195ZM392.438 3.99609H394.039L396.744 10.9004L399.439 3.99609H401.041L397.145 13.8008C396.786 14.7057 396.409 15.3503 396.012 15.7344C395.621 16.112 395.133 16.3008 394.547 16.3008C394.469 16.3008 394.394 16.2975 394.322 16.291C394.257 16.2845 394.192 16.2747 394.127 16.2617C394.062 16.2487 394 16.2292 393.941 16.2031V15.002C394.397 15.002 394.739 14.901 394.967 14.6992C395.195 14.4974 395.387 14.1979 395.543 13.8008L395.943 12.8047L392.438 3.99609ZM404.049 13H402.545V3.99609H404.049V13ZM407.848 13L404.049 8.30273L407.447 3.99609H409.146L405.748 8.19531L409.645 13H407.848ZM419.449 11.6035V15.1973H418.043V13H410.846V3.99609H412.35V11.6035H416.744V3.99609H418.248V11.6035H419.449ZM428.736 3.99609V13H427.242V6.30078L422.643 13H421.139V3.99609H422.643V10.6953L427.242 3.99609H428.736ZM438.932 3.99609V13H437.438V6.30078L432.838 13H431.334V3.99609H432.838V10.6953L437.438 3.99609H438.932Z" fill="#0B132A"/>
</svg>
