<svg width="320" height="169" viewBox="0 0 320 169" fill="none" xmlns="http://www.w3.org/2000/svg">
<g filter="url(#filter0_f_22_571)">
<rect x="54" y="54.4785" width="211.829" height="60" rx="10" fill="#F53838" fill-opacity="0.35"/>
</g>
<rect x="35" y="39.4785" width="257" height="53" rx="5" fill="#F53838"/>
<path d="M78.69 63.7565H81.444C82.716 63.7565 83.754 64.1105 84.558 64.8185C85.374 65.5145 85.782 66.4505 85.782 67.6265C85.782 68.7905 85.374 69.7265 84.558 70.4345C83.742 71.1305 82.704 71.4785 81.444 71.4785H76.566V58.6985H84.63V60.7145H78.69V63.7565ZM83.694 67.6265C83.694 67.0025 83.496 66.5285 83.1 66.2045C82.704 65.8685 82.146 65.7005 81.426 65.7005H78.69V69.5165H81.426C82.146 69.5165 82.704 69.3545 83.1 69.0305C83.496 68.7065 83.694 68.2385 83.694 67.6265ZM91.7379 71.6585C90.3699 71.6585 89.2419 71.2205 88.3539 70.3445C87.4779 69.4685 87.0399 68.3465 87.0399 66.9785C87.0399 65.6465 87.4839 64.5365 88.3719 63.6485C89.2599 62.7485 90.3819 62.2985 91.7379 62.2985C92.9859 62.2985 94.0179 62.6945 94.8339 63.4865C95.6619 64.2785 96.0759 65.3705 96.0759 66.7625C96.0759 67.0025 96.0699 67.2185 96.0579 67.4105H88.9839C89.0319 68.1425 89.3139 68.7365 89.8299 69.1925C90.3459 69.6365 90.9879 69.8585 91.7559 69.8585C92.9079 69.8585 93.7659 69.4025 94.3299 68.4905L95.8419 69.5705C94.9779 70.9625 93.6099 71.6585 91.7379 71.6585ZM89.0739 65.9705H94.0779C93.9699 65.3465 93.6879 64.8605 93.2319 64.5125C92.7879 64.1525 92.2659 63.9725 91.6659 63.9725C91.0419 63.9725 90.4839 64.1465 89.9919 64.4945C89.5119 64.8425 89.2059 65.3345 89.0739 65.9705ZM102.215 71.6585C100.859 71.6585 99.7253 71.2145 98.8133 70.3265C97.9133 69.4265 97.4633 68.3105 97.4633 66.9785C97.4633 65.6465 97.9133 64.5365 98.8133 63.6485C99.7253 62.7485 100.859 62.2985 102.215 62.2985C103.139 62.2985 103.967 62.5205 104.699 62.9645C105.443 63.4085 106.013 64.0145 106.409 64.7825L104.681 65.7185C104.453 65.2385 104.123 64.8545 103.691 64.5665C103.259 64.2785 102.767 64.1345 102.215 64.1345C101.423 64.1345 100.769 64.4105 100.253 64.9625C99.7373 65.5025 99.4793 66.1745 99.4793 66.9785C99.4793 67.7825 99.7373 68.4605 100.253 69.0125C100.769 69.5525 101.423 69.8225 102.215 69.8225C102.767 69.8225 103.259 69.6785 103.691 69.3905C104.123 69.1025 104.453 68.7185 104.681 68.2385L106.409 69.1745C106.013 69.9425 105.443 70.5485 104.699 70.9925C103.967 71.4365 103.139 71.6585 102.215 71.6585ZM108.219 71.4785V62.4785H116.337V71.4785H114.357V64.2425H110.199V71.4785H108.219ZM118.994 71.6225C118.55 71.6225 118.226 71.5985 118.022 71.5505V69.8405C118.286 69.8645 118.484 69.8765 118.616 69.8765C118.988 69.8765 119.264 69.7565 119.444 69.5165C119.624 69.2645 119.714 68.8265 119.714 68.2025V62.4785H127.04V71.4785H125.06V64.2425H121.694V68.5085C121.694 69.5285 121.436 70.3025 120.92 70.8305C120.416 71.3585 119.774 71.6225 118.994 71.6225ZM133.389 71.6585C132.165 71.6585 131.133 71.2025 130.293 70.2905C129.465 69.3785 129.051 68.2745 129.051 66.9785C129.051 65.6825 129.465 64.5785 130.293 63.6665C131.133 62.7545 132.165 62.2985 133.389 62.2985C134.001 62.2985 134.565 62.4365 135.081 62.7125C135.597 62.9765 135.993 63.3005 136.269 63.6845V62.4785H138.249V71.4785H136.269V70.2725C135.993 70.6565 135.597 70.9865 135.081 71.2625C134.565 71.5265 134.001 71.6585 133.389 71.6585ZM131.823 69.0305C132.327 69.5825 132.969 69.8585 133.749 69.8585C134.529 69.8585 135.171 69.5825 135.675 69.0305C136.179 68.4785 136.431 67.7945 136.431 66.9785C136.431 66.1625 136.179 65.4785 135.675 64.9265C135.171 64.3745 134.529 64.0985 133.749 64.0985C132.969 64.0985 132.327 64.3745 131.823 64.9265C131.319 65.4785 131.067 66.1625 131.067 66.9785C131.067 67.7945 131.319 68.4785 131.823 69.0305ZM142.606 71.4785V64.2425H139.906V62.4785H147.412V64.2425H144.586V71.4785H142.606ZM149.07 71.4785V62.4785H151.05V66.0425H155.388V62.4785H157.368V71.4785H155.388V67.8065H151.05V71.4785H149.07ZM168.535 71.4785V62.4785H170.515V71.4785H168.535ZM160.039 71.4785V62.4785H162.019V65.4485H163.909C165.001 65.4485 165.823 65.7545 166.375 66.3665C166.939 66.9665 167.221 67.6565 167.221 68.4365C167.221 69.2285 166.939 69.9365 166.375 70.5605C165.823 71.1725 165.001 71.4785 163.909 71.4785H160.039ZM162.019 67.1945V69.7325H163.747C164.251 69.7325 164.635 69.6245 164.899 69.4085C165.175 69.1805 165.313 68.8625 165.313 68.4545C165.313 67.6145 164.791 67.1945 163.747 67.1945H162.019ZM174.951 71.4785H173.187V62.4785H175.167V68.4725L179.757 62.4785H181.521V71.4785H179.541V65.4845L174.951 71.4785ZM179.613 60.4265C179.049 60.9665 178.341 61.2365 177.489 61.2365C176.637 61.2365 175.923 60.9665 175.347 60.4265C174.783 59.8745 174.501 59.1485 174.501 58.2485V57.9785H175.905V58.2485C175.905 58.8005 176.055 59.2385 176.355 59.5625C176.655 59.8745 177.033 60.0305 177.489 60.0305C177.945 60.0305 178.323 59.8745 178.623 59.5625C178.923 59.2385 179.073 58.8005 179.073 58.2485V57.9785H180.477V58.2485C180.477 59.1485 180.189 59.8745 179.613 60.4265ZM188.428 71.4785V62.4785H196.546V71.4785H194.566V64.2425H190.408V71.4785H188.428ZM206.619 70.3085C205.719 71.2085 204.603 71.6585 203.271 71.6585C201.939 71.6585 200.817 71.2085 199.905 70.3085C199.005 69.3965 198.555 68.2865 198.555 66.9785C198.555 65.6705 199.005 64.5665 199.905 63.6665C200.817 62.7545 201.939 62.2985 203.271 62.2985C204.603 62.2985 205.719 62.7545 206.619 63.6665C207.531 64.5665 207.987 65.6705 207.987 66.9785C207.987 68.2865 207.531 69.3965 206.619 70.3085ZM203.271 69.8225C204.051 69.8225 204.693 69.5525 205.197 69.0125C205.713 68.4605 205.971 67.7825 205.971 66.9785C205.971 66.1745 205.713 65.5025 205.197 64.9625C204.693 64.4105 204.051 64.1345 203.271 64.1345C202.479 64.1345 201.825 64.4105 201.309 64.9625C200.805 65.5025 200.553 66.1745 200.553 66.9785C200.553 67.7825 200.805 68.4605 201.309 69.0125C201.825 69.5525 202.479 69.8225 203.271 69.8225ZM209.029 69.7145H209.263C210.115 69.7145 210.541 68.8325 210.541 67.0685V62.4785H217.957V69.7145H219.361V73.7285H217.561V71.4785H210.847V73.7285H209.029V69.7145ZM212.521 64.2425V67.2665C212.521 68.3585 212.347 69.1745 211.999 69.7145H215.977V64.2425H212.521ZM225.461 71.6585C223.997 71.6585 222.851 71.1785 222.023 70.2185C221.195 69.2585 220.781 67.9745 220.781 66.3665V65.6465C220.781 63.4145 221.201 61.7525 222.041 60.6605C222.893 59.5685 224.219 58.8485 226.019 58.5005L229.277 57.9065V59.7965L226.451 60.3005C225.275 60.5165 224.405 60.9005 223.841 61.4525C223.289 62.0045 222.947 62.8085 222.815 63.8645C223.559 63.0005 224.549 62.5685 225.785 62.5685C227.105 62.5685 228.167 62.9945 228.971 63.8465C229.775 64.6865 230.177 65.7185 230.177 66.9425C230.177 68.2625 229.721 69.3785 228.809 70.2905C227.909 71.2025 226.793 71.6585 225.461 71.6585ZM223.499 69.0485C224.003 69.5645 224.651 69.8225 225.443 69.8225C226.235 69.8225 226.883 69.5645 227.387 69.0485C227.903 68.5205 228.161 67.8305 228.161 66.9785C228.161 66.2225 227.903 65.5925 227.387 65.0885C226.883 64.5845 226.241 64.3325 225.461 64.3325C224.669 64.3325 224.021 64.5905 223.517 65.1065C223.013 65.6225 222.761 66.2465 222.761 66.9785C222.761 67.8305 223.007 68.5205 223.499 69.0485ZM239.613 70.3085C238.713 71.2085 237.597 71.6585 236.265 71.6585C234.933 71.6585 233.811 71.2085 232.899 70.3085C231.999 69.3965 231.549 68.2865 231.549 66.9785C231.549 65.6705 231.999 64.5665 232.899 63.6665C233.811 62.7545 234.933 62.2985 236.265 62.2985C237.597 62.2985 238.713 62.7545 239.613 63.6665C240.525 64.5665 240.981 65.6705 240.981 66.9785C240.981 68.2865 240.525 69.3965 239.613 70.3085ZM236.265 69.8225C237.045 69.8225 237.687 69.5525 238.191 69.0125C238.707 68.4605 238.965 67.7825 238.965 66.9785C238.965 66.1745 238.707 65.5025 238.191 64.9625C237.687 64.4105 237.045 64.1345 236.265 64.1345C235.473 64.1345 234.819 64.4105 234.303 64.9625C233.799 65.5025 233.547 66.1745 233.547 66.9785C233.547 67.7825 233.799 68.4605 234.303 69.0125C234.819 69.5525 235.473 69.8225 236.265 69.8225ZM244.953 75.2405H242.973V62.4785H244.953V63.6845C245.229 63.3005 245.625 62.9765 246.141 62.7125C246.669 62.4365 247.239 62.2985 247.851 62.2985C249.075 62.2985 250.101 62.7545 250.929 63.6665C251.769 64.5785 252.189 65.6825 252.189 66.9785C252.189 68.2745 251.769 69.3785 250.929 70.2905C250.101 71.2025 249.075 71.6585 247.851 71.6585C247.239 71.6585 246.669 71.5265 246.141 71.2625C245.625 70.9865 245.229 70.6565 244.953 70.2725V75.2405ZM247.491 69.8585C248.271 69.8585 248.913 69.5825 249.417 69.0305C249.921 68.4785 250.173 67.7945 250.173 66.9785C250.173 66.1625 249.921 65.4785 249.417 64.9265C248.913 64.3745 248.271 64.0985 247.491 64.0985C246.699 64.0985 246.051 64.3745 245.547 64.9265C245.043 65.4785 244.791 66.1625 244.791 66.9785C244.791 67.7945 245.043 68.4785 245.547 69.0305C246.051 69.5825 246.699 69.8585 247.491 69.8585Z" fill="white"/>
<defs>
<filter id="filter0_f_22_571" x="0" y="0.478516" width="319.829" height="168" filterUnits="userSpaceOnUse" color-interpolation-filters="sRGB">
<feFlood flood-opacity="0" result="BackgroundImageFix"/>
<feBlend mode="normal" in="SourceGraphic" in2="BackgroundImageFix" result="shape"/>
<feGaussianBlur stdDeviation="27" result="effect1_foregroundBlur_22_571"/>
</filter>
</defs>
</svg>
